<?xml version="1.0" encoding="UTF-8"?>
<svg width="512px" height="394px" viewBox="0 0 512 394" version="1.1" xmlns="http://www.w3.org/2000/svg" xmlns:xlink="http://www.w3.org/1999/xlink">
    <!-- Generator: Sketch 57.1 (83088) - https://sketch.com -->
    <title>Path</title>
    <desc>Created with Sketch.</desc>
    <g id="Page-1" stroke="none" stroke-width="1" fill="none" fill-rule="evenodd">
        <g id="checked" transform="translate(0.000000, 0.076923)" fill="#000000" fill-rule="nonzero">
            <path d="M5.90769231,216.615385 C1.96923077,212.676923 0,206.769231 0,202.830769 C0,198.892308 1.96923077,192.984615 5.90769231,189.046154 L33.4769231,161.476923 C41.3538462,153.6 53.1692308,153.6 61.0461538,161.476923 L63.0153846,163.446154 L171.323077,279.630769 C175.261538,283.569231 181.169231,283.569231 185.107692,279.630769 L448.984615,5.90769231 L450.953846,5.90769231 L450.953846,5.90769231 C458.830769,-1.96923077 470.646154,-1.96923077 478.523077,5.90769231 L506.092308,33.4769231 C513.969231,41.3538462 513.969231,53.1692308 506.092308,61.0461538 L506.092308,61.0461538 L191.015385,387.938462 C187.076923,391.876923 183.138462,393.846154 177.230769,393.846154 C171.323077,393.846154 167.384615,391.876923 163.446154,387.938462 L9.84615385,222.523077 L5.90769231,216.615385 Z" id="Path"></path>
        </g>
    </g>
</svg>